<?xml version="1.0" standalone="no"?><!DOCTYPE svg PUBLIC "-//W3C//DTD SVG 1.1//EN" "http://www.w3.org/Graphics/SVG/1.1/DTD/svg11.dtd"><svg t="1780388412489" class="icon" viewBox="0 0 1024 1024" version="1.1" xmlns="http://www.w3.org/2000/svg" p-id="1647" xmlns:xlink="http://www.w3.org/1999/xlink" width="200" height="200"><path d="M856.832 1001.216c-11.264 0-275.456-0.256-448.512-25.088-250.624-35.84-377.6-98.304-377.6-185.856 0-28.672 11.008-54.016 31.744-73.216 48.128-44.288 134.912-40.704 155.904-39.168 9.216 0 19.968 0.768 32 1.792 20.992 1.792 64.256 5.12 74.24-4.352 1.024-1.024 1.536-4.352 1.536-8.448 0-25.344-118.016-76.8-211.2-84.736a38.4 38.4 0 0 1-35.072-41.472c1.792-21.248 20.48-36.608 41.472-35.072 2.816 0.256 281.344 34.048 281.344 161.28 0 33.536-14.336 53.76-26.368 64.768-34.816 32-88.832 27.904-132.352 24.32-10.24-0.768-19.456-1.28-27.136-1.536-1.28 0-2.304 0-3.584-0.256-35.072-2.816-81.408 2.816-99.072 18.944-4.864 4.608-6.912 9.216-6.912 16.64 0 21.248 76.288 76.032 311.808 109.824 167.68 24.064 435.2 24.32 437.76 24.32 21.248 0 38.4 17.152 38.4 38.4s-17.408 38.912-38.4 38.912zM118.016 434.944c-9.728 0-19.712-3.84-27.136-11.264a38.144 38.144 0 0 1 0-54.272l147.712-147.712a38.144 38.144 0 0 1 54.272 0c15.104 15.104 15.104 39.424 0 54.272l-147.712 147.712c-7.424 7.68-17.152 11.264-27.136 11.264zM955.136 188.672c-9.728 0-19.712-3.84-27.136-11.264l-87.296-87.296h-230.4c-21.248 0-38.4-17.152-38.4-38.4s17.152-38.4 38.4-38.4h246.272c10.24 0 19.968 4.096 27.136 11.264l98.56 98.56c15.104 15.104 15.104 39.424 0 54.272-7.424 7.68-17.152 11.264-27.136 11.264z" fill="#8a8a8a" p-id="1648"></path><path d="M807.424 434.944H413.44c-10.24 0-19.968-4.096-27.136-11.264l-147.712-147.712c-11.008-11.008-14.336-27.392-8.192-41.728s19.968-23.808 35.584-23.808h393.984c10.24 0 19.968 4.096 27.136 11.264l147.712 147.712c11.008 11.008 14.336 27.392 8.448 41.728s-20.224 23.808-35.84 23.808z m-378.112-76.8h285.44l-70.912-70.912H358.4l70.912 70.912z" fill="#8a8a8a" p-id="1649"></path><path d="M561.152 681.216c-21.248 0-38.4-17.152-38.4-38.4v-98.56c0-21.248 17.152-38.4 38.4-38.4s38.4 17.152 38.4 38.4v98.56c0 21.248-17.152 38.4-38.4 38.4zM708.864 779.776c-21.248 0-38.4-17.152-38.4-38.4v-196.864c0-21.248 17.152-38.4 38.4-38.4s38.4 17.152 38.4 38.4v196.864c0 21.248-17.152 38.4-38.4 38.4z" fill="#8a8a8a" p-id="1650"></path></svg>